<svg width="168" height="101" viewBox="0 0 168 101" fill="none" xmlns="http://www.w3.org/2000/svg">
<path d="M84.5026 83.7518C75.6792 92.3306 63.7302 97.6727 50.3327 97.6727C24.2718 97.6727 3.05542 77.4595 3.05542 52.5255V45.0008C3.05542 31.1483 14.8298 19.8059 29.308 19.8059H71.2528L84.503 24.9358V83.7518H84.5026Z" fill="#21686B"/>
<path d="M68.891 14.9358V19.9194L58.2742 22.4275L60.8307 32.4603L58.1764 34.9685L50.2955 29.9519L42.4225 34.9685L39.7968 32.4603L42.4025 22.4275L31.9001 19.9194V14.9358H50.2791H68.891Z" fill="#A1C0B6"/>
<path d="M60.8356 87.64C34.7749 87.64 13.5753 67.4268 13.5753 42.4931V34.9684C13.5753 30.622 14.7158 26.5355 16.7487 22.9714C8.60074 27.2258 3.05493 35.4951 3.05493 45.0012V52.5259C3.05493 77.4599 24.2713 97.6731 50.3323 97.6731C63.7297 97.6731 76.6967 92.331 84.5022 83.7522V81.5699C76.6974 85.4165 69.4373 87.64 60.8356 87.64Z" fill="#4F8581"/>
<path d="M165.609 52.5255C165.609 77.4596 144.499 97.6727 118.438 97.6727C92.3762 97.6727 71.2659 77.4596 71.2659 52.5255V45.0008C71.2659 31.1484 82.9953 19.9189 97.4739 19.9189C106.063 19.9189 113.661 23.8896 118.442 29.9973C123.224 23.8896 130.815 19.9189 139.404 19.9189C153.882 19.9189 165.609 31.1484 165.609 45.0008V52.5255Z" fill="#21686B"/>
<path d="M89.5918 52.5255V45.0008C89.5918 34.2316 96.7043 25.0746 106.665 21.5199C103.803 20.4874 100.714 19.9189 97.4717 19.9189C82.9935 19.9189 71.2664 31.1484 71.2664 45.0008V52.5255C71.2664 77.4596 92.3856 97.6727 118.447 97.6727C121.588 97.6727 124.644 97.3645 127.614 96.8041C105.946 92.7171 89.5918 74.4542 89.5918 52.5255Z" fill="#4F8581"/>
<path d="M139.256 17.4844C132.537 17.4844 126.215 19.6808 121.153 23.6558L120.353 24.1894L118.316 25.4319L116.063 24.1631C110.871 19.9131 104.169 17.4847 97.2201 17.4847C92.3673 17.4847 87.7926 18.6267 83.7692 20.6335C79.8507 18.7921 75.6498 17.8582 71.2516 17.8582H70.9271V12.6634H52.9409V0H47.8505V12.6627H29.1855V17.8607C13.0815 17.922 0 30.0721 0 45.0009V52.5256C0 78.8142 22.4401 100.201 50.0222 100.201C62.8183 100.201 75.1461 95.5875 84.2728 87.4652C93.1704 95.3078 105.057 100.108 118.099 100.108C145.606 100.108 167.985 78.7624 167.985 52.5253V45.0006C167.985 29.8282 155.098 17.4844 139.256 17.4844ZM65.8367 17.5333V17.8579V18.0237L54.921 20.6655L57.8801 31.7286L57.779 31.8262L50.2637 27.0234L42.7312 31.8331L42.5967 31.7041L45.3796 20.6448L34.6151 18.094V17.8579H34.2759V17.5333H65.8367ZM18.3058 82.7697C9.78415 74.6615 5.09074 63.9205 5.09074 52.5256V45.0009C5.09074 32.7196 15.954 22.7282 29.3072 22.7282H32.9976L39.2478 24.2095L36.9813 33.2162L42.0826 38.1034L50.2633 32.8803L58.4467 38.11L63.5266 33.1917L61.1184 24.1894L67.1547 22.7282H71.252C73.8091 22.7282 76.2856 23.114 78.6574 23.8755C72.2792 28.9276 68.2125 36.5216 68.2125 45.0012V52.5259C68.2125 64.5772 72.9364 75.5938 80.707 83.9867C72.5266 91.2226 61.4891 95.3317 50.0225 95.3317C38.0834 95.3314 26.8196 90.8701 18.3058 82.7697ZM162.895 52.5256C162.895 76.0772 142.799 95.2378 118.099 95.2378C93.3984 95.2378 73.3029 76.0772 73.3029 52.5256V45.0009C73.3029 32.5137 84.0323 22.3543 97.2201 22.3543C104.692 22.3543 111.817 25.7574 116.279 31.4574L118.316 34.0597L120.353 31.4574C124.882 25.6723 131.772 22.3543 139.256 22.3543C152.291 22.3543 162.895 32.5137 162.895 45.0009V52.5256Z" fill="black"/>
<path d="M19.409 74.0508C13.9288 67.0732 11.032 58.7688 11.032 50.002H16.1233C16.1233 57.7944 18.6667 64.9942 23.4792 71.1211L19.409 74.0508Z" fill="#FAFAF9"/>
<path d="M30.5603 83.9018C28.3835 82.5855 26.3215 81.0675 24.4314 79.39L27.8939 75.8196C29.5552 77.2943 31.3672 78.6281 33.2806 79.7849L30.5603 83.9018Z" fill="#FAFAF9"/>
<path d="M110.289 73.6185C109.625 73.6185 108.989 73.3663 108.52 72.9174C108.05 72.4684 107.787 71.8595 107.787 71.2247V47.399C107.785 46.9782 107.9 46.5645 108.119 46.1998C108.338 45.835 108.655 45.5321 109.035 45.3218C109.416 45.1114 109.848 45.001 110.288 45.0017C110.728 45.0024 111.16 45.1143 111.54 45.3259L133.105 57.24C133.485 57.4501 133.801 57.7523 134.02 58.1162C134.24 58.4801 134.356 58.8928 134.356 59.313C134.356 59.7332 134.24 60.146 134.02 60.5099C133.801 60.8738 133.485 61.176 133.105 61.3861L111.54 73.3001C111.159 73.5082 110.728 73.6179 110.289 73.6185Z" fill="#FAFAF9"/>
</svg>
