<svg width="50" height="50" viewBox="0 0 93 60" fill="none" xmlns="http://www.w3.org/2000/svg">
<path d="M46.7822 50.1501C41.8973 55.2871 35.2821 58.4859 27.865 58.4859C13.4371 58.4859 1.69128 46.3823 1.69128 31.452V26.9462C1.69128 18.6515 8.20983 11.8597 16.2253 11.8597H39.4468L46.7824 14.9314V50.1501H46.7822Z" fill="#FF1D25"/>
<path d="M38.1395 8.94348V11.9276L32.2618 13.4295L33.6771 19.4371L32.2077 20.9389L27.8446 17.935L23.486 20.9389L22.0323 19.4371L23.4749 13.4295L17.6606 11.9276V8.94348H27.8356H38.1395Z" fill="#39B54A"/>
<path d="M33.6796 52.4783C19.2518 52.4783 7.5153 40.3748 7.5153 25.4446V20.9389C7.5153 18.3363 8.14668 15.8894 9.27213 13.7552C4.76126 16.3027 1.69098 21.2543 1.69098 26.9465V31.4522C1.69098 46.3826 13.4368 58.4861 27.8647 58.4861C35.2818 58.4861 42.4607 55.2873 46.7819 50.1504V48.8436C42.461 51.147 38.4417 52.4783 33.6796 52.4783Z" fill="#C1272D"/>
<path d="M91.6848 31.452C91.6848 46.3824 79.9976 58.4859 65.5695 58.4859C51.1414 58.4859 39.4543 46.3824 39.4543 31.452V26.9463C39.4543 18.6515 45.948 11.9274 53.9636 11.9274C58.7189 11.9274 62.925 14.305 65.5723 17.9622C68.2195 14.305 72.4218 11.9274 77.1771 11.9274C85.1926 11.9274 91.6848 18.6515 91.6848 26.9463V31.452Z" fill="#FF1D25"/>
<path d="M49.6 31.452V26.9463C49.6 20.4977 53.5376 15.0145 59.052 12.886C57.4676 12.2678 55.7572 11.9274 53.9624 11.9274C45.947 11.9274 39.4546 18.6515 39.4546 26.9463V31.452C39.4546 46.3824 51.1466 58.4859 65.5747 58.4859C67.3138 58.4859 69.0056 58.3013 70.6496 57.9658C58.654 55.5185 49.6 44.5828 49.6 31.452Z" fill="#C1272D"/>
<path d="M77.0953 10.4695C73.3751 10.4695 69.8755 11.7847 67.0729 14.165L66.6301 14.4845L65.5023 15.2285L64.2548 14.4687C61.3807 11.9238 57.6701 10.4697 53.8231 10.4697C51.1365 10.4697 48.6039 11.1536 46.3764 12.3552C44.2071 11.2526 41.8813 10.6934 39.4464 10.6934H39.2668V7.58275H29.3092V0H26.4911V7.58237H16.1577V10.6949C7.24221 10.7316 0 18.007 0 26.9463V31.452C0 47.1935 12.4233 60 27.6934 60C34.7775 60 41.6025 57.2373 46.6552 52.3736C51.5811 57.0698 58.1618 59.944 65.3819 59.944C80.6106 59.944 93 47.1625 93 31.4519V26.9461C93.0002 17.8609 85.8653 10.4695 77.0953 10.4695ZM36.4486 10.4989V10.6932V10.7925L30.4054 12.3744L32.0437 18.9989L31.9877 19.0573L27.827 16.1815L23.6569 19.0615L23.5825 18.9842L25.1231 12.362L19.1637 10.8346V10.6932H18.9759V10.4989H36.4486ZM10.1345 49.562C5.41672 44.7069 2.81834 38.2752 2.81834 31.452V26.9463C2.81834 19.5923 8.83247 13.6095 16.2251 13.6095H18.2682L21.7284 14.4965L20.4737 19.8897L23.2978 22.8161L27.8269 19.6885L32.3573 22.8201L35.1697 19.875L33.8364 14.4845L37.1783 13.6095H39.4466C40.8623 13.6095 42.2333 13.8405 43.5464 14.2965C40.0153 17.3217 37.7639 21.869 37.7639 26.9465V31.4522C37.7639 38.6684 40.3792 45.2651 44.6811 50.2908C40.1523 54.6236 34.0417 57.0841 27.6935 57.0841C21.0838 57.0839 14.8479 54.4125 10.1345 49.562ZM90.182 31.452C90.182 45.5546 79.0567 57.0279 65.382 57.0279C51.7074 57.0279 40.5821 45.5546 40.5821 31.452V26.9463C40.5821 19.469 46.5221 13.3857 53.8231 13.3857C57.9596 13.3857 61.9042 15.4234 64.3745 18.8365L65.5023 20.3947L66.6301 18.8365C69.1373 15.3725 72.9517 13.3857 77.0953 13.3857C84.3114 13.3857 90.182 19.469 90.182 26.9463V31.452Z" fill="black"/>
<path d="M10.7447 44.3413C7.71107 40.1632 6.10754 35.1905 6.10754 29.941H8.92589C8.92589 34.6071 10.3338 38.9183 12.9977 42.587L10.7447 44.3413Z" fill="white"/>
<path d="M16.9184 50.2401C15.7134 49.4519 14.5719 48.5429 13.5257 47.5384L15.4424 45.4005C16.362 46.2836 17.365 47.0822 18.4242 47.7749L16.9184 50.2401Z" fill="white"/>
<path d="M61.0583 44.0824C60.691 44.0824 60.3386 43.9314 60.0789 43.6626C59.8191 43.3938 59.6732 43.0292 59.6732 42.649V28.3823C59.6723 28.1304 59.7358 27.8827 59.8572 27.6642C59.9785 27.4458 60.1535 27.2645 60.3644 27.1385C60.5752 27.0125 60.8145 26.9464 61.058 26.9468C61.3014 26.9473 61.5405 27.0143 61.7509 27.141L73.6897 34.275C73.9002 34.4009 74.0751 34.5818 74.1966 34.7997C74.3182 35.0176 74.3822 35.2648 74.3822 35.5164C74.3822 35.768 74.3182 36.0151 74.1966 36.233C74.0751 36.4509 73.9002 36.6319 73.6897 36.7577L61.7509 43.8918C61.5399 44.0163 61.3013 44.082 61.0583 44.0824Z" fill="white"/>
</svg>
